<?xml version="1.0" encoding="UTF-8" standalone="no"?>
<svg
   xmlns:dc="http://purl.org/dc/elements/1.1/"
   xmlns:cc="http://creativecommons.org/ns#"
   xmlns:rdf="http://www.w3.org/1999/02/22-rdf-syntax-ns#"
   xmlns:svg="http://www.w3.org/2000/svg"
   xmlns="http://www.w3.org/2000/svg"
   xmlns:sodipodi="http://sodipodi.sourceforge.net/DTD/sodipodi-0.dtd"
   xmlns:inkscape="http://www.inkscape.org/namespaces/inkscape"
   height="1000"
   width="1233"
   id="svg2"
   version="1.1"
   inkscape:version="0.91 r13725"
   sodipodi:docname="windows_icon.svg">
  <metadata
     id="metadata10">
    <rdf:RDF>
      <cc:Work
         rdf:about="">
        <dc:format>image/svg+xml</dc:format>
        <dc:type
           rdf:resource="http://purl.org/dc/dcmitype/StillImage" />
      </cc:Work>
    </rdf:RDF>
  </metadata>
  <defs
     id="defs8" />
  <sodipodi:namedview
     pagecolor="#ffffff"
     bordercolor="#666666"
     borderopacity="1"
     objecttolerance="10"
     gridtolerance="10"
     guidetolerance="10"
     inkscape:pageopacity="0"
     inkscape:pageshadow="2"
     inkscape:window-width="1920"
     inkscape:window-height="1057"
     id="namedview6"
     showgrid="false"
     inkscape:zoom="0.236"
     inkscape:cx="616.5"
     inkscape:cy="161.01695"
     inkscape:window-x="-8"
     inkscape:window-y="-8"
     inkscape:window-maximized="1"
     inkscape:current-layer="svg2" />
  <path
     d="M0 893l105-371q35-20 85.5-31t83.5-13l34-1q50 0 104 10 101 20 144 61l-104 370q-36-28-79.5-45.5t-68.5-20.5l-26-4q-34-3-65-3-16 0-42.5 1.5t-83.5 13.5-87 33zm126-477l105-371q35-20 86-31.5t84-12.5l33-1q51 0 104 10 101 20 144 61l-104 371q-36-28-79.5-45.5t-68.5-20.5l-26-4q-35-3-64-3-16 0-42.5 1.5t-84 13-87.5 32.5zm431 513l104-371q37 28 80.5 45.5t68.5 20.5l25 4q34 3 65 3 16 0 42.5-1.5t84-13 86.5-32.5l-104 371q-35 20-86 31t-84 12l-33 2q-51 0-104-10-101-20-145-61zm120-475l104-370q37 28 80.5 45.5t68.5 20.5l25 4q34 3 65 3 16 0 42.5-1.5t83.5-13 87-32.5l-104 370q-35 20-86 31.5t-85 12.5l-33 2q-52 0-103-11-101-19-145-61z"
     fill="#000000"
     id="path4" />
  <path
     style="fill:none;fill-opacity:1"
     d="m 857.21028,519.15771 c -69.60237,-10.20856 -155.88359,-40.58688 -172.64804,-60.78679 -4.54216,-5.47298 24.98142,-118.16626 91.38822,-348.83427 l 6.40352,-22.243006 19.47754,13.400906 c 24.45077,16.82256 79.4523,40.19037 115.51594,49.07779 19.3057,4.75764 48.45085,6.8705 97.45764,7.06512 76.4933,0.30377 138.4238,-9.30217 187.5,-29.08287 13.4004,-5.40119 24.4125,-8.6119 24.4713,-7.13492 0.059,1.47698 -22.2753,82.5849 -49.6314,180.23983 l -49.7383,177.5544 -21.7231,9.9452 c -62.1508,28.45357 -171.79818,42.0445 -248.47332,30.79861 z"
     id="path4138"
     inkscape:connector-curvature="0" />
  <path
     style="fill:#ffffff;fill-opacity:1"
     d="m 857.21028,519.15771 c -69.60237,-10.20856 -155.88359,-40.58688 -172.64804,-60.78679 -4.54216,-5.47298 24.98142,-118.16626 91.38822,-348.83427 l 6.40352,-22.243006 19.47754,13.400906 c 24.45077,16.82256 79.4523,40.19037 115.51594,49.07779 19.3057,4.75764 48.45085,6.8705 97.45764,7.06512 76.4933,0.30377 138.4238,-9.30217 187.5,-29.08287 13.4004,-5.40119 24.4125,-8.6119 24.4713,-7.13492 0.059,1.47698 -22.2753,82.5849 -49.6314,180.23983 l -49.7383,177.5544 -21.7231,9.9452 c -62.1508,28.45357 -171.79818,42.0445 -248.47332,30.79861 z"
     id="path4140"
     inkscape:connector-curvature="0" />
  <path
     style="fill:#ffffff;fill-opacity:1"
     d="m 555.08775,423.63818 c -11.63687,-7.91099 -34.84447,-20.08133 -51.57241,-27.04519 -53.42632,-22.24143 -81.02505,-26.89359 -160.32042,-27.02426 -79.67837,-0.13131 -134.54357,8.39269 -184.8758,28.72278 -14.61774,5.90437 -26.87941,10.32496 -27.24815,9.82355 -0.36874,-0.50142 22.42016,-82.39386 50.64201,-181.98319 l 51.31244,-181.071527 20.84252,-8.972665 c 94.98015,-40.8887824 234.48274,-44.0467238 343.38278,-7.773208 40.70229,13.557526 84.7478,39.237949 81.63292,47.5955 -1.02949,2.762229 -24.27525,85.10698 -51.6572,182.98834 -27.38199,97.88135 -50.05432,178.22652 -50.38305,178.54483 -0.32881,0.31822 -10.11873,-5.89395 -21.75564,-13.80496 z"
     id="path4142"
     inkscape:connector-curvature="0" />
  <path
     style="fill:#ffffff;fill-opacity:1"
     d="m 440.65254,906.52352 c -16.43292,-12.36053 -72.3774,-38.69681 -100.90946,-47.50388 -41.41441,-12.7835 -111.11267,-18.44725 -166.83636,-13.5573 -54.22218,4.75819 -116.419864,17.64725 -143.972267,29.83499 -10.821964,4.78707 -20.4825666,7.8975 -21.468006,6.91206 -0.9854394,-0.98545 20.785226,-81.54645 48.379256,-179.02447 l 50.170967,-177.23275 17.70716,-9.76783 c 24.97776,-13.77852 93.10695,-30.16759 143.11797,-34.42828 99.74544,-8.49781 225.7471,17.96686 277.04871,58.18975 l 10.01763,7.85428 -49.75136,177.58301 c -27.36322,97.67065 -50.93898,179.81766 -52.39051,182.54893 -1.93407,3.6392 -4.90326,3.26289 -11.11373,-1.40851 z"
     id="path4144"
     inkscape:connector-curvature="0" />
  <path
     style="fill:#ffffff;fill-opacity:1"
     d="m 752.09322,995.6597 c -41.54151,-5.28656 -89.17875,-16.01066 -118.2509,-26.62068 -35.00997,-12.77706 -67.25736,-31.1703 -70.79046,-40.37741 -1.76666,-4.60383 92.76655,-353.05896 98.5684,-363.32907 0.89727,-1.5883 11.46323,3.58722 23.47991,11.50114 27.94189,18.40192 87.26391,42.16923 122.33883,49.01494 35.12798,6.85606 146.92803,7.00391 179.82371,0.2378 58.77939,-12.08998 85.67559,-19.27103 101.04619,-26.97848 8.9653,-4.49554 17.0776,-7.39659 18.0274,-6.44677 3.5751,3.57508 -99.058,360.07214 -104.7041,363.69102 -13.39707,8.58675 -54.88973,22.16019 -90.64067,29.65116 -37.28731,7.81288 -129.39809,13.41051 -158.89831,9.65635 z"
     id="path4146"
     inkscape:connector-curvature="0" />
</svg>
